FILE "不自然なガール／ナチュラルに恋して.flac" FLAC
  TRACK 01 AUDIO
    ISRC JPTK00911480
    INDEX 01 00:00:00
  TRACK 02 AUDIO
    ISRC JPTK00911490
    INDEX 01 03:59:21
  TRACK 03 AUDIO
    ISRC JPTK00911500
    INDEX 01 07:07:52
  TRACK 04 AUDIO
    ISRC JPTK00911510
    INDEX 01 11:05:50
REM FLAC__lead-in 88200
REM FLAC__lead-out 170 37496172
